<?xml version="1.0" encoding="UTF-8" standalone="no"?>
<!DOCTYPE svg PUBLIC "-//W3C//DTD SVG 1.1//EN"
 "http://www.w3.org/Graphics/SVG/1.1/DTD/svg11.dtd">
<!-- Generated by graphviz version 2.38.0 (20140413.2041)
 -->
<!-- Title: 1 Pages: 1 -->
<svg width="227pt" height="227pt"
 viewBox="0.00 0.00 227.00 227.00" xmlns="http://www.w3.org/2000/svg" xmlns:xlink="http://www.w3.org/1999/xlink">
<g id="graph0" class="graph" transform="scale(1 1) rotate(0) translate(94.4983 120.498)">
<title>1</title>
<polygon fill="white" stroke="none" points="-94.4983,106.498 -94.4983,-120.498 132.498,-120.498 132.498,106.498 -94.4983,106.498"/>
<!-- n10 -->
<g id="node1" class="node"><title>n10</title>
<ellipse fill="none" stroke="black" cx="-6" cy="6" rx="24.0958" ry="24.0958"/>
<text text-anchor="middle" x="-6" y="9.7" font-family="Times,serif" font-size="14.00">n10</text>
</g>
<!-- n9 -->
<g id="node2" class="node"><title>n9</title>
<ellipse fill="none" stroke="black" cx="61" cy="23" rx="19.4965" ry="19.4965"/>
<text text-anchor="middle" x="61" y="26.7" font-family="Times,serif" font-size="14.00">n9</text>
</g>
<!-- n8 -->
<g id="node3" class="node"><title>n8</title>
<ellipse fill="none" stroke="black" cx="61" cy="-37" rx="19.4965" ry="19.4965"/>
<text text-anchor="middle" x="61" y="-33.3" font-family="Times,serif" font-size="14.00">n8</text>
</g>
<!-- n7 -->
<g id="node4" class="node"><title>n7</title>
<ellipse fill="none" stroke="black" cx="1" cy="-61" rx="19.4965" ry="19.4965"/>
<text text-anchor="middle" x="1" y="-57.3" font-family="Times,serif" font-size="14.00">n7</text>
</g>
<!-- n6 -->
<g id="node5" class="node"><title>n6</title>
<ellipse fill="none" stroke="black" cx="97" cy="-97" rx="19.4965" ry="19.4965"/>
<text text-anchor="middle" x="97" y="-93.3" font-family="Times,serif" font-size="14.00">n6</text>
</g>
<!-- n5 -->
<g id="node6" class="node"><title>n5</title>
<ellipse fill="none" stroke="black" cx="-59" cy="-97" rx="19.4965" ry="19.4965"/>
<text text-anchor="middle" x="-59" y="-93.3" font-family="Times,serif" font-size="14.00">n5</text>
</g>
<!-- n4 -->
<g id="node7" class="node"><title>n4</title>
<ellipse fill="none" stroke="black" cx="-71" cy="-37" rx="19.4965" ry="19.4965"/>
<text text-anchor="middle" x="-71" y="-33.3" font-family="Times,serif" font-size="14.00">n4</text>
</g>
<!-- n3 -->
<g id="node8" class="node"><title>n3</title>
<ellipse fill="none" stroke="black" cx="-71" cy="23" rx="19.4965" ry="19.4965"/>
<text text-anchor="middle" x="-71" y="26.7" font-family="Times,serif" font-size="14.00">n3</text>
</g>
<!-- n2 -->
<g id="node9" class="node"><title>n2</title>
<ellipse fill="none" stroke="black" cx="-11" cy="71" rx="19.4965" ry="19.4965"/>
<text text-anchor="middle" x="-11" y="74.7" font-family="Times,serif" font-size="14.00">n2</text>
</g>
<!-- n1 -->
<g id="node10" class="node"><title>n1</title>
<ellipse fill="none" stroke="black" cx="49" cy="83" rx="19.4965" ry="19.4965"/>
<text text-anchor="middle" x="49" y="86.7" font-family="Times,serif" font-size="14.00">n1</text>
</g>
<!-- n0 -->
<g id="node11" class="node"><title>n0</title>
<ellipse fill="none" stroke="black" cx="109" cy="83" rx="19.4965" ry="19.4965"/>
<text text-anchor="middle" x="109" y="86.7" font-family="Times,serif" font-size="14.00">n0</text>
</g>
</g>
</svg>
