<?xml version="1.0" encoding="UTF-8" standalone="no"?>
<!DOCTYPE svg PUBLIC "-//W3C//DTD SVG 1.1//EN"
 "http://www.w3.org/Graphics/SVG/1.1/DTD/svg11.dtd">
<!-- Generated by graphviz version 2.38.0 (20140413.2041)
 -->
<!-- Title: 1 Pages: 1 -->
<svg width="235pt" height="277pt"
 viewBox="0.00 0.00 235.07 277.28" xmlns="http://www.w3.org/2000/svg" xmlns:xlink="http://www.w3.org/1999/xlink">
<g id="graph0" class="graph" transform="scale(1 1) rotate(0) translate(117.468 136.978)">
<title>1</title>
<polygon fill="white" stroke="none" points="-117.468,140.304 -117.468,-136.978 117.597,-136.978 117.597,140.304 -117.468,140.304"/>
<!-- n10 -->
<g id="node1" class="node"><title>n10</title>
<ellipse fill="none" stroke="black" cx="-89.42" cy="-8.67284" rx="24.0958" ry="24.0958"/>
<text text-anchor="middle" x="-89.42" y="-4.97284" font-family="Times,serif" font-size="14.00">n10</text>
</g>
<!-- n9 -->
<g id="node2" class="node"><title>n9</title>
<ellipse fill="none" stroke="black" cx="76.4182" cy="-48.2635" rx="19.4965" ry="19.4965"/>
<text text-anchor="middle" x="76.4182" y="-44.5635" font-family="Times,serif" font-size="14.00">n9</text>
</g>
<!-- n10&#45;&#45;n9 -->
<g id="edge54" class="edge"><title>n10&#45;&#45;n9</title>
<path fill="none" stroke="black" d="M-66.0111,-14.2612C-32.9761,-22.1477 26.6942,-36.3928 57.2515,-43.6878"/>
</g>
<!-- n8 -->
<g id="node3" class="node"><title>n8</title>
<ellipse fill="none" stroke="black" cx="-22.6685" cy="58.9166" rx="19.4965" ry="19.4965"/>
<text text-anchor="middle" x="-22.6685" y="62.6166" font-family="Times,serif" font-size="14.00">n8</text>
</g>
<!-- n10&#45;&#45;n8 -->
<g id="edge53" class="edge"><title>n10&#45;&#45;n8</title>
<path fill="none" stroke="black" d="M-72.2298,8.73312C-61.1047,19.9979 -46.8138,34.4682 -36.4387,44.9735"/>
</g>
<!-- n7 -->
<g id="node4" class="node"><title>n7</title>
<ellipse fill="none" stroke="black" cx="-12.7972" cy="-66.483" rx="19.4965" ry="19.4965"/>
<text text-anchor="middle" x="-12.7972" y="-62.783" font-family="Times,serif" font-size="14.00">n7</text>
</g>
<!-- n10&#45;&#45;n7 -->
<g id="edge52" class="edge"><title>n10&#45;&#45;n7</title>
<path fill="none" stroke="black" d="M-70.0848,-23.2608C-57.3167,-32.894 -40.7865,-45.3657 -28.7666,-54.4345"/>
</g>
<!-- n6 -->
<g id="node5" class="node"><title>n6</title>
<ellipse fill="none" stroke="black" cx="26.8175" cy="-113.48" rx="19.4965" ry="19.4965"/>
<text text-anchor="middle" x="26.8175" y="-109.78" font-family="Times,serif" font-size="14.00">n6</text>
</g>
<!-- n10&#45;&#45;n6 -->
<g id="edge51" class="edge"><title>n10&#45;&#45;n6</title>
<path fill="none" stroke="black" d="M-71.5126,-24.8192C-48.5868,-45.4905 -9.28749,-80.9251 12.0259,-100.143"/>
</g>
<!-- n5 -->
<g id="node6" class="node"><title>n5</title>
<ellipse fill="none" stroke="black" cx="-70.0008" cy="-63.7934" rx="19.4965" ry="19.4965"/>
<text text-anchor="middle" x="-70.0008" y="-60.0934" font-family="Times,serif" font-size="14.00">n5</text>
</g>
<!-- n10&#45;&#45;n5 -->
<g id="edge50" class="edge"><title>n10&#45;&#45;n5</title>
<path fill="none" stroke="black" d="M-81.4093,-31.4107C-79.7795,-36.037 -78.0837,-40.8503 -76.5135,-45.3073"/>
</g>
<!-- n4 -->
<g id="node7" class="node"><title>n4</title>
<ellipse fill="none" stroke="black" cx="-80.7387" cy="49.3963" rx="19.4965" ry="19.4965"/>
<text text-anchor="middle" x="-80.7387" y="53.0963" font-family="Times,serif" font-size="14.00">n4</text>
</g>
<!-- n10&#45;&#45;n4 -->
<g id="edge49" class="edge"><title>n10&#45;&#45;n4</title>
<path fill="none" stroke="black" d="M-85.8388,15.2813C-85.1102,20.1551 -84.3521,25.2259 -83.6502,29.9213"/>
</g>
<!-- n3 -->
<g id="node8" class="node"><title>n3</title>
<ellipse fill="none" stroke="black" cx="94.0991" cy="11.3346" rx="19.4965" ry="19.4965"/>
<text text-anchor="middle" x="94.0991" y="15.0346" font-family="Times,serif" font-size="14.00">n3</text>
</g>
<!-- n10&#45;&#45;n3 -->
<g id="edge48" class="edge"><title>n10&#45;&#45;n3</title>
<path fill="none" stroke="black" d="M-65.4281,-6.05722C-28.7022,-2.05333 40.7473,5.51813 74.5843,9.20706"/>
</g>
<!-- n2 -->
<g id="node9" class="node"><title>n2</title>
<ellipse fill="none" stroke="black" cx="17.1117" cy="-0.545782" rx="19.4965" ry="19.4965"/>
<text text-anchor="middle" x="17.1117" y="3.15422" font-family="Times,serif" font-size="14.00">n2</text>
</g>
<!-- n10&#45;&#45;n2 -->
<g id="edge47" class="edge"><title>n10&#45;&#45;n2</title>
<path fill="none" stroke="black" d="M-65.2463,-6.82868C-46.2156,-5.37688 -20.0381,-3.37985 -2.34458,-2.03006"/>
</g>
<!-- n1 -->
<g id="node10" class="node"><title>n1</title>
<ellipse fill="none" stroke="black" cx="63.0907" cy="64.7849" rx="19.4965" ry="19.4965"/>
<text text-anchor="middle" x="63.0907" y="68.4849" font-family="Times,serif" font-size="14.00">n1</text>
</g>
<!-- n10&#45;&#45;n1 -->
<g id="edge46" class="edge"><title>n10&#45;&#45;n1</title>
<path fill="none" stroke="black" d="M-67.5689,1.85186C-37.2588,16.4509 16.9795,42.5751 45.091,56.1152"/>
</g>
<!-- n0 -->
<g id="node11" class="node"><title>n0</title>
<ellipse fill="none" stroke="black" cx="-1.91217" cy="116.806" rx="19.4965" ry="19.4965"/>
<text text-anchor="middle" x="-1.91217" y="120.506" font-family="Times,serif" font-size="14.00">n0</text>
</g>
<!-- n10&#45;&#45;n0 -->
<g id="edge45" class="edge"><title>n10&#45;&#45;n0</title>
<path fill="none" stroke="black" d="M-75.5541,11.2096C-58.301,35.949 -29.1712,77.7186 -13.2087,100.607"/>
</g>
<!-- n9&#45;&#45;n8 -->
<g id="edge44" class="edge"><title>n9&#45;&#45;n8</title>
<path fill="none" stroke="black" d="M63.0549,-33.8087C44.1435,-13.3526 9.76777,23.8309 -9.20051,44.3485"/>
</g>
<!-- n9&#45;&#45;n7 -->
<g id="edge43" class="edge"><title>n9&#45;&#45;n7</title>
<path fill="none" stroke="black" d="M57.0598,-52.2168C42.0954,-55.2729 21.4783,-59.4833 6.52345,-62.5373"/>
</g>
<!-- n9&#45;&#45;n6 -->
<g id="edge42" class="edge"><title>n9&#45;&#45;n6</title>
<path fill="none" stroke="black" d="M64.4113,-64.0504C56.6128,-74.304 46.4903,-87.6134 38.7139,-97.8379"/>
</g>
<!-- n9&#45;&#45;n5 -->
<g id="edge41" class="edge"><title>n9&#45;&#45;n5</title>
<path fill="none" stroke="black" d="M56.9749,-50.3257C28.9702,-53.296 -22.4277,-58.7475 -50.477,-61.7226"/>
</g>
<!-- n9&#45;&#45;n4 -->
<g id="edge40" class="edge"><title>n9&#45;&#45;n4</title>
<path fill="none" stroke="black" d="M59.5997,-37.8122C29.3514,-19.0154 -33.881,20.2782 -64.0411,39.0201"/>
</g>
<!-- n9&#45;&#45;n3 -->
<g id="edge39" class="edge"><title>n9&#45;&#45;n3</title>
<path fill="none" stroke="black" d="M82.0125,-29.4063C84.0764,-22.4494 86.4144,-14.5686 88.4804,-7.60449"/>
</g>
<!-- n9&#45;&#45;n2 -->
<g id="edge38" class="edge"><title>n9&#45;&#45;n2</title>
<path fill="none" stroke="black" d="M61.1453,-35.975C52.3593,-28.9058 41.3509,-20.0485 32.539,-12.9585"/>
</g>
<!-- n9&#45;&#45;n1 -->
<g id="edge37" class="edge"><title>n9&#45;&#45;n1</title>
<path fill="none" stroke="black" d="M74.1271,-28.8298C71.686,-8.12335 67.8432,24.4725 65.3965,45.2264"/>
</g>
<!-- n9&#45;&#45;n0 -->
<g id="edge36" class="edge"><title>n9&#45;&#45;n0</title>
<path fill="none" stroke="black" d="M68.0355,-30.5982C52.9985,1.08983 21.6076,67.2414 6.52867,99.0179"/>
</g>
<!-- n8&#45;&#45;n7 -->
<g id="edge35" class="edge"><title>n8&#45;&#45;n7</title>
<path fill="none" stroke="black" d="M-21.1261,39.3229C-19.2716,15.7646 -16.1784,-23.53 -14.3287,-47.0269"/>
</g>
<!-- n8&#45;&#45;n6 -->
<g id="edge34" class="edge"><title>n8&#45;&#45;n6</title>
<path fill="none" stroke="black" d="M-17.2784,40.139C-7.75936,6.9771 11.9198,-61.5797 21.4341,-94.7251"/>
</g>
<!-- n8&#45;&#45;n5 -->
<g id="edge33" class="edge"><title>n8&#45;&#45;n5</title>
<path fill="none" stroke="black" d="M-29.7546,40.5457C-38.6777,17.4123 -53.9203,-22.1044 -62.8662,-45.2969"/>
</g>
<!-- n8&#45;&#45;n4 -->
<g id="edge32" class="edge"><title>n8&#45;&#45;n4</title>
<path fill="none" stroke="black" d="M-42.005,55.7465C-48.2078,54.7295 -55.0777,53.6033 -61.2886,52.585"/>
</g>
<!-- n8&#45;&#45;n3 -->
<g id="edge31" class="edge"><title>n8&#45;&#45;n3</title>
<path fill="none" stroke="black" d="M-4.42358,51.4819C17.5131,42.5429 54.1028,27.6328 75.9823,18.7171"/>
</g>
<!-- n8&#45;&#45;n2 -->
<g id="edge30" class="edge"><title>n8&#45;&#45;n2</title>
<path fill="none" stroke="black" d="M-11.7984,42.6682C-6.18535,34.278 0.643592,24.0703 6.25474,15.6829"/>
</g>
<!-- n8&#45;&#45;n1 -->
<g id="edge29" class="edge"><title>n8&#45;&#45;n1</title>
<path fill="none" stroke="black" d="M-3.20842,60.2482C10.7278,61.2018 29.4249,62.4812 43.4108,63.4382"/>
</g>
<!-- n8&#45;&#45;n0 -->
<g id="edge28" class="edge"><title>n8&#45;&#45;n0</title>
<path fill="none" stroke="black" d="M-15.9868,77.5517C-13.6166,84.1622 -10.9505,91.5979 -8.58134,98.2055"/>
</g>
<!-- n7&#45;&#45;n6 -->
<g id="edge27" class="edge"><title>n7&#45;&#45;n6</title>
<path fill="none" stroke="black" d="M-0.0447708,-81.6117C4.47892,-86.9783 9.56734,-93.0149 14.089,-98.3792"/>
</g>
<!-- n7&#45;&#45;n5 -->
<g id="edge26" class="edge"><title>n7&#45;&#45;n5</title>
<path fill="none" stroke="black" d="M-32.4834,-65.5574C-38.3007,-65.2839 -44.6647,-64.9846 -50.472,-64.7116"/>
</g>
<!-- n7&#45;&#45;n4 -->
<g id="edge25" class="edge"><title>n7&#45;&#45;n4</title>
<path fill="none" stroke="black" d="M-22.8222,-49.3846C-35.6676,-27.4757 -57.8073,10.2851 -70.6725,32.2277"/>
</g>
<!-- n7&#45;&#45;n3 -->
<g id="edge24" class="edge"><title>n7&#45;&#45;n3</title>
<path fill="none" stroke="black" d="M2.97574,-55.0008C23.1862,-40.2881 58.0198,-14.9302 78.2615,-0.194775"/>
</g>
<!-- n7&#45;&#45;n2 -->
<g id="edge23" class="edge"><title>n7&#45;&#45;n2</title>
<path fill="none" stroke="black" d="M-4.62444,-48.4654C-0.404253,-39.1615 4.73011,-27.8423 8.94886,-18.5416"/>
</g>
<!-- n7&#45;&#45;n1 -->
<g id="edge22" class="edge"><title>n7&#45;&#45;n1</title>
<path fill="none" stroke="black" d="M-3.03152,-49.5908C11.4599,-24.5241 38.5136,22.2723 53.1216,47.5406"/>
</g>
<!-- n7&#45;&#45;n0 -->
<g id="edge21" class="edge"><title>n7&#45;&#45;n0</title>
<path fill="none" stroke="black" d="M-11.6323,-46.8679C-9.53723,-11.59 -5.15763,62.1565 -3.06868,97.3316"/>
</g>
<!-- n6&#45;&#45;n5 -->
<g id="edge20" class="edge"><title>n6&#45;&#45;n5</title>
<path fill="none" stroke="black" d="M9.05957,-104.366C-8.40957,-95.4014 -34.9252,-81.7938 -52.3554,-72.8488"/>
</g>
<!-- n6&#45;&#45;n4 -->
<g id="edge19" class="edge"><title>n6&#45;&#45;n4</title>
<path fill="none" stroke="black" d="M15.9126,-96.9658C-4.70217,-65.7482 -49.1679,1.58758 -69.8049,32.8388"/>
</g>
<!-- n6&#45;&#45;n3 -->
<g id="edge18" class="edge"><title>n6&#45;&#45;n3</title>
<path fill="none" stroke="black" d="M36.1727,-96.1247C49.0271,-72.2786 72.0109,-29.6413 84.8233,-5.87289"/>
</g>
<!-- n6&#45;&#45;n2 -->
<g id="edge17" class="edge"><title>n6&#45;&#45;n2</title>
<path fill="none" stroke="black" d="M25.1269,-93.808C23.3455,-73.0797 20.5571,-40.6347 18.783,-19.9919"/>
</g>
<!-- n6&#45;&#45;n1 -->
<g id="edge16" class="edge"><title>n6&#45;&#45;n1</title>
<path fill="none" stroke="black" d="M30.7685,-94.0628C37.7643,-59.6818 52.2467,11.4917 59.1996,45.6619"/>
</g>
<!-- n5&#45;&#45;n4 -->
<g id="edge15" class="edge"><title>n5&#45;&#45;n4</title>
<path fill="none" stroke="black" d="M-71.8467,-44.3354C-73.8135,-23.6031 -76.9096,9.03345 -78.8809,29.8134"/>
</g>
<!-- n5&#45;&#45;n3 -->
<g id="edge14" class="edge"><title>n5&#45;&#45;n3</title>
<path fill="none" stroke="black" d="M-52.1268,-55.6104C-20.5608,-41.1588 44.6968,-11.2827 76.2472,3.16165"/>
</g>
<!-- n5&#45;&#45;n2 -->
<g id="edge13" class="edge"><title>n5&#45;&#45;n2</title>
<path fill="none" stroke="black" d="M-54.023,-52.1928C-38.3051,-40.7809 -14.4476,-23.4593 1.23524,-12.0728"/>
</g>
<!-- n5&#45;&#45;n1 -->
<g id="edge12" class="edge"><title>n5&#45;&#45;n1</title>
<path fill="none" stroke="black" d="M-55.7576,-50.0333C-30.1413,-25.2856 23.4083,26.4481 48.95,51.1237"/>
</g>
<!-- n5&#45;&#45;n0 -->
<g id="edge11" class="edge"><title>n5&#45;&#45;n0</title>
<path fill="none" stroke="black" d="M-63.0974,-45.4827C-50.0472,-10.8682 -21.8981,63.7947 -8.83384,98.4466"/>
</g>
<!-- n4&#45;&#45;n3 -->
<g id="edge10" class="edge"><title>n4&#45;&#45;n3</title>
<path fill="none" stroke="black" d="M-61.36,45.1776C-27.6636,37.842 41.3296,22.8223 74.9,15.5142"/>
</g>
<!-- n4&#45;&#45;n2 -->
<g id="edge9" class="edge"><title>n4&#45;&#45;n2</title>
<path fill="none" stroke="black" d="M-63.245,40.4676C-45.5443,31.4333 -18.3248,17.5407 -0.560436,8.47394"/>
</g>
<!-- n4&#45;&#45;n1 -->
<g id="edge8" class="edge"><title>n4&#45;&#45;n1</title>
<path fill="none" stroke="black" d="M-61.3412,51.4716C-33.8904,54.4087 16.0078,59.7474 43.5412,62.6932"/>
</g>
<!-- n4&#45;&#45;n0 -->
<g id="edge7" class="edge"><title>n4&#45;&#45;n0</title>
<path fill="none" stroke="black" d="M-65.912,62.0755C-51.9083,74.0509 -31.0098,91.9225 -16.9404,103.954"/>
</g>
<!-- n3&#45;&#45;n2 -->
<g id="edge6" class="edge"><title>n3&#45;&#45;n2</title>
<path fill="none" stroke="black" d="M74.6719,8.33667C63.0012,6.53569 48.2023,4.25198 36.5327,2.45118"/>
</g>
<!-- n3&#45;&#45;n1 -->
<g id="edge5" class="edge"><title>n3&#45;&#45;n1</title>
<path fill="none" stroke="black" d="M84.2878,28.2466C80.6682,34.4858 76.5679,41.5537 72.9446,47.7994"/>
</g>
<!-- n3&#45;&#45;n0 -->
<g id="edge4" class="edge"><title>n3&#45;&#45;n0</title>
<path fill="none" stroke="black" d="M80.7491,25.9999C62.4059,46.1504 29.6078,82.1801 11.3244,102.265"/>
</g>
<!-- n2&#45;&#45;n1 -->
<g id="edge3" class="edge"><title>n2&#45;&#45;n1</title>
<path fill="none" stroke="black" d="M28.4773,15.6034C35.6043,25.7299 44.7538,38.7303 51.8559,48.8215"/>
</g>
<!-- n2&#45;&#45;n0 -->
<g id="edge2" class="edge"><title>n2&#45;&#45;n0</title>
<path fill="none" stroke="black" d="M13.9703,18.8324C10.4455,40.5758 4.76063,75.6436 1.23391,97.3987"/>
</g>
<!-- n1&#45;&#45;n0 -->
<g id="edge1" class="edge"><title>n1&#45;&#45;n0</title>
<path fill="none" stroke="black" d="M47.6859,77.1131C37.324,85.4056 23.7209,96.292 13.382,104.566"/>
</g>
</g>
</svg>
