ply
format ascii 1.0
element vertex 25
property float x
property float y
property float z
property uchar red
property uchar green
property uchar blue
end_header
-0.0183969  0.0682913  0.0542168 0 255 0
-0.611748  0.488917 -0.525146 0 255 0
 1.25968 0.592442  3.92518 255 255 255
0.591102 0.625164  6.23102 255 255 255
 1.21493 0.419038  3.78445 255 255 255
0.591679  0.87037  6.19529 255 255 255
 1.35387 0.621523  3.81289 255 255 255
0.669844 0.312861  6.15288 255 255 255
1.24837 0.73075 4.00008 255 255 255
 1.20753 0.792128  4.05574 255 255 255
0.587498 0.904834   6.1681 255 255 255
0.565536 0.940246  6.20633 255 255 255
 1.25901 0.695641  3.92926 255 255 255
 1.36165 0.665924  3.89157 255 255 255
 1.22979 0.774124  4.02587 255 255 255
 1.21768 0.372463  3.76536 255 255 255
 1.23041 0.390501  3.73098 255 255 255
  1.2518 0.668362  4.07826 255 255 255
 1.24817 0.667217  3.93586 255 255 255
 1.24578 0.778175  4.02207 255 255 255
0.669445 0.370407  6.16474 255 255 255
0.654603 0.687784  6.16061 255 255 255
 1.23225 0.711661  4.04975 255 255 255
 1.29056 0.644478   3.8656 255 255 255
0.666609 0.568086  6.19537 255 255 255
