ply
format ascii 1.0
element vertex 25
property float x
property float y
property float z
property uchar red
property uchar green
property uchar blue
end_header
 1.25968 0.592442  3.92518 85 76 61
0.591102 0.625164  6.23102 110 107 100
 1.21493 0.419038  3.78445 34 37 28
0.591679  0.87037  6.19529 90 90 90
 1.35387 0.621523  3.81289  99 103 104
0.669844 0.312861  6.15288 111  92  77
1.24837 0.73075 4.00008  95 100 106
 1.20753 0.792128  4.05574  89 100 122
0.587498 0.904834   6.1681 86 92 92
0.565536 0.940246  6.20633 69 67 70
 1.25901 0.695641  3.92926 102  94 117
 1.36165 0.665924  3.89157  96 102 114
 1.22979 0.774124  4.02587  99 109 121
 1.21768 0.372463  3.76536 104 116 106
 1.23041 0.390501  3.73098  0 30 13
  1.2518 0.668362  4.07826 108 113 107
 1.24817 0.667217  3.93586 109 113 122
 1.24578 0.778175  4.02207 105 114 131
0.669445 0.370407  6.16474 107  87  78
0.654603 0.687784  6.16061 68 65 58
1.23225 0.71166 4.04975 104 104 112
 1.29056 0.644478   3.8656 104  98 110
0.666609 0.568086  6.19537 76 67 62
-0.0183969  0.0682913  0.0542168 0 255 0
-0.611748  0.488917 -0.525146 0 255 0
