ply
format ascii 1.0
element vertex 25
property float x
property float y
property float z
property uchar red
property uchar green
property uchar blue
end_header
0 0 0 0 255 0
-0.629372  0.592868 -0.502393 0 255 0
 1.27211 0.598337  3.90967 255 255 255
0.537573 0.605548  5.72198 255 255 255
 1.24575 0.426586   3.8191 255 255 255
0.534486 0.829763  5.66051 255 255 255
 1.37237 0.628537  3.81088 255 255 255
0.613868 0.316136  5.68059 255 255 255
 1.25142 0.734321  3.95729 255 255 255
 1.20585 0.793909  3.99806 255 255 255
0.531111 0.861852  5.63841 255 255 255
0.509029 0.893037  5.65955 255 255 255
 1.26852 0.701199  3.90434 255 255 255
 1.37319 0.671522  3.87135 255 255 255
 1.23017 0.776703  3.97477 255 255 255
 1.25264 0.379662  3.81041 255 255 255
 1.26704 0.398114  3.77923 255 255 255
 1.25149 0.671112  4.02617 255 255 255
 1.25876 0.673081  3.91396 255 255 255
 1.24528 0.780369  3.96912 255 255 255
0.612087 0.369494  5.68151 255 255 255
0.595761 0.663008  5.65376 255 255 255
 1.23304 0.714616  4.00027 255 255 255
 1.30639 0.651441  3.85721 255 255 255
0.606233  0.55201  5.68449 255 255 255
