<?xml version="1.0" standalone="yes"?>
<!-- SVG graphic -->
<svg xmlns='http://www.w3.org/2000/svg' xmlns:xlink='http://www.w3.org/1999/xlink'
 version="1.1">
<rect x="0" y="200" width="6" height="0" stroke="black" stroke-width="1" fill="blue" tooltip="enable"><title>(0,0)</title></rect><rect x="6" y="133.333" width="6" height="66.6667" stroke="black" stroke-width="1" fill="blue" tooltip="enable"><title>(0.0203574,2)</title></rect><rect x="12" y="0" width="6" height="200" stroke="black" stroke-width="1" fill="blue" tooltip="enable"><title>(0.0407148,6)</title></rect><rect x="18" y="133.333" width="6" height="66.6667" stroke="black" stroke-width="1" fill="blue" tooltip="enable"><title>(0.0610722,2)</title></rect><rect x="24" y="133.333" width="6" height="66.6667" stroke="black" stroke-width="1" fill="blue" tooltip="enable"><title>(0.0814296,2)</title></rect><rect x="30" y="200" width="6" height="0" stroke="black" stroke-width="1" fill="blue" tooltip="enable"><title>(0.101787,0)</title></rect><rect x="36" y="200" width="6" height="0" stroke="black" stroke-width="1" fill="blue" tooltip="enable"><title>(0.122144,0)</title></rect><rect x="42" y="200" width="6" height="0" stroke="black" stroke-width="1" fill="blue" tooltip="enable"><title>(0.142502,0)</title></rect><rect x="48" y="200" width="6" height="0" stroke="black" stroke-width="1" fill="blue" tooltip="enable"><title>(0.162859,0)</title></rect><rect x="54" y="200" width="6" height="0" stroke="black" stroke-width="1" fill="blue" tooltip="enable"><title>(0.183217,0)</title></rect><rect x="60" y="200" width="6" height="0" stroke="black" stroke-width="1" fill="blue" tooltip="enable"><title>(0.203574,0)</title></rect><rect x="66" y="200" width="6" height="0" stroke="black" stroke-width="1" fill="blue" tooltip="enable"><title>(0.223932,0)</title></rect><rect x="72" y="200" width="6" height="0" stroke="black" stroke-width="1" fill="blue" tooltip="enable"><title>(0.244289,0)</title></rect><rect x="78" y="133.333" width="6" height="66.6667" stroke="black" stroke-width="1" fill="blue" tooltip="enable"><title>(0.264646,2)</title></rect><rect x="84" y="133.333" width="6" height="66.6667" stroke="black" stroke-width="1" fill="blue" tooltip="enable"><title>(0.285004,2)</title></rect><rect x="90" y="133.333" width="6" height="66.6667" stroke="black" stroke-width="1" fill="blue" tooltip="enable"><title>(0.305361,2)</title></rect><rect x="96" y="200" width="6" height="0" stroke="black" stroke-width="1" fill="blue" tooltip="enable"><title>(0.325719,0)</title></rect><rect x="102" y="66.6667" width="6" height="133.333" stroke="black" stroke-width="1" fill="blue" tooltip="enable"><title>(0.346076,4)</title></rect><rect x="108" y="100" width="6" height="100" stroke="black" stroke-width="1" fill="blue" tooltip="enable"><title>(0.366433,3)</title></rect><rect x="114" y="166.667" width="6" height="33.3333" stroke="black" stroke-width="1" fill="blue" tooltip="enable"><title>(0.386791,1)</title></rect><rect x="120" y="166.667" width="6" height="33.3333" stroke="black" stroke-width="1" fill="blue" tooltip="enable"><title>(0.407148,1)</title></rect><rect x="126" y="166.667" width="6" height="33.3333" stroke="black" stroke-width="1" fill="blue" tooltip="enable"><title>(0.427506,1)</title></rect><rect x="132" y="100" width="6" height="100" stroke="black" stroke-width="1" fill="blue" tooltip="enable"><title>(0.447863,3)</title></rect><rect x="138" y="166.667" width="6" height="33.3333" stroke="black" stroke-width="1" fill="blue" tooltip="enable"><title>(0.46822,1)</title></rect><rect x="144" y="166.667" width="6" height="33.3333" stroke="black" stroke-width="1" fill="blue" tooltip="enable"><title>(0.488578,1)</title></rect><rect x="150" y="133.333" width="6" height="66.6667" stroke="black" stroke-width="1" fill="blue" tooltip="enable"><title>(0.508935,2)</title></rect><rect x="156" y="200" width="6" height="0" stroke="black" stroke-width="1" fill="blue" tooltip="enable"><title>(0.529293,0)</title></rect><rect x="162" y="100" width="6" height="100" stroke="black" stroke-width="1" fill="blue" tooltip="enable"><title>(0.54965,3)</title></rect><rect x="168" y="100" width="6" height="100" stroke="black" stroke-width="1" fill="blue" tooltip="enable"><title>(0.570008,3)</title></rect><rect x="174" y="100" width="6" height="100" stroke="black" stroke-width="1" fill="blue" tooltip="enable"><title>(0.590365,3)</title></rect><rect x="180" y="33.3333" width="6" height="166.667" stroke="black" stroke-width="1" fill="blue" tooltip="enable"><title>(0.610722,5)</title></rect><rect x="186" y="166.667" width="6" height="33.3333" stroke="black" stroke-width="1" fill="blue" tooltip="enable"><title>(0.63108,1)</title></rect><rect x="192" y="166.667" width="6" height="33.3333" stroke="black" stroke-width="1" fill="blue" tooltip="enable"><title>(0.651437,1)</title></rect><rect x="198" y="100" width="6" height="100" stroke="black" stroke-width="1" fill="blue" tooltip="enable"><title>(0.671795,3)</title></rect><rect x="204" y="33.3333" width="6" height="166.667" stroke="black" stroke-width="1" fill="blue" tooltip="enable"><title>(0.692152,5)</title></rect><rect x="210" y="166.667" width="6" height="33.3333" stroke="black" stroke-width="1" fill="blue" tooltip="enable"><title>(0.712509,1)</title></rect><rect x="216" y="166.667" width="6" height="33.3333" stroke="black" stroke-width="1" fill="blue" tooltip="enable"><title>(0.732867,1)</title></rect><rect x="222" y="133.333" width="6" height="66.6667" stroke="black" stroke-width="1" fill="blue" tooltip="enable"><title>(0.753224,2)</title></rect><rect x="228" y="100" width="6" height="100" stroke="black" stroke-width="1" fill="blue" tooltip="enable"><title>(0.773582,3)</title></rect><rect x="234" y="166.667" width="6" height="33.3333" stroke="black" stroke-width="1" fill="blue" tooltip="enable"><title>(0.793939,1)</title></rect><rect x="240" y="200" width="6" height="0" stroke="black" stroke-width="1" fill="blue" tooltip="enable"><title>(0.814296,0)</title></rect><rect x="246" y="166.667" width="6" height="33.3333" stroke="black" stroke-width="1" fill="blue" tooltip="enable"><title>(0.834654,1)</title></rect><rect x="252" y="200" width="6" height="0" stroke="black" stroke-width="1" fill="blue" tooltip="enable"><title>(0.855011,0)</title></rect><rect x="258" y="166.667" width="6" height="33.3333" stroke="black" stroke-width="1" fill="blue" tooltip="enable"><title>(0.875369,1)</title></rect><rect x="264" y="200" width="6" height="0" stroke="black" stroke-width="1" fill="blue" tooltip="enable"><title>(0.895726,0)</title></rect><rect x="270" y="133.333" width="6" height="66.6667" stroke="black" stroke-width="1" fill="blue" tooltip="enable"><title>(0.916083,2)</title></rect><rect x="276" y="200" width="6" height="0" stroke="black" stroke-width="1" fill="blue" tooltip="enable"><title>(0.936441,0)</title></rect><rect x="282" y="166.667" width="6" height="33.3333" stroke="black" stroke-width="1" fill="blue" tooltip="enable"><title>(0.956798,1)</title></rect><rect x="288" y="100" width="6" height="100" stroke="black" stroke-width="1" fill="blue" tooltip="enable"><title>(0.977156,3)</title></rect><rect x="294" y="166.667" width="6" height="33.3333" stroke="black" stroke-width="1" fill="blue" tooltip="enable"><title>(0.997513,1)</title></rect><rect x="300" y="200" width="6" height="0" stroke="black" stroke-width="1" fill="blue" tooltip="enable"><title>(1.01787,0)</title></rect><rect x="306" y="200" width="6" height="0" stroke="black" stroke-width="1" fill="blue" tooltip="enable"><title>(1.03823,0)</title></rect><rect x="312" y="166.667" width="6" height="33.3333" stroke="black" stroke-width="1" fill="blue" tooltip="enable"><title>(1.05859,1)</title></rect><rect x="318" y="200" width="6" height="0" stroke="black" stroke-width="1" fill="blue" tooltip="enable"><title>(1.07894,0)</title></rect><rect x="324" y="166.667" width="6" height="33.3333" stroke="black" stroke-width="1" fill="blue" tooltip="enable"><title>(1.0993,1)</title></rect><rect x="330" y="200" width="6" height="0" stroke="black" stroke-width="1" fill="blue" tooltip="enable"><title>(1.11966,0)</title></rect><rect x="336" y="200" width="6" height="0" stroke="black" stroke-width="1" fill="blue" tooltip="enable"><title>(1.14002,0)</title></rect><rect x="342" y="200" width="6" height="0" stroke="black" stroke-width="1" fill="blue" tooltip="enable"><title>(1.16037,0)</title></rect><rect x="348" y="200" width="6" height="0" stroke="black" stroke-width="1" fill="blue" tooltip="enable"><title>(1.18073,0)</title></rect><rect x="354" y="166.667" width="6" height="33.3333" stroke="black" stroke-width="1" fill="blue" tooltip="enable"><title>(1.20109,1)</title></rect><rect x="360" y="166.667" width="6" height="33.3333" stroke="black" stroke-width="1" fill="blue" tooltip="enable"><title>(1.22144,1)</title></rect><rect x="366" y="166.667" width="6" height="33.3333" stroke="black" stroke-width="1" fill="blue" tooltip="enable"><title>(1.2418,1)</title></rect><rect x="372" y="200" width="6" height="0" stroke="black" stroke-width="1" fill="blue" tooltip="enable"><title>(1.26216,0)</title></rect><rect x="378" y="166.667" width="6" height="33.3333" stroke="black" stroke-width="1" fill="blue" tooltip="enable"><title>(1.28252,1)</title></rect><rect x="384" y="200" width="6" height="0" stroke="black" stroke-width="1" fill="blue" tooltip="enable"><title>(1.30287,0)</title></rect><rect x="390" y="200" width="6" height="0" stroke="black" stroke-width="1" fill="blue" tooltip="enable"><title>(1.32323,0)</title></rect><rect x="396" y="200" width="6" height="0" stroke="black" stroke-width="1" fill="blue" tooltip="enable"><title>(1.34359,0)</title></rect><rect x="402" y="200" width="6" height="0" stroke="black" stroke-width="1" fill="blue" tooltip="enable"><title>(1.36395,0)</title></rect><rect x="408" y="200" width="6" height="0" stroke="black" stroke-width="1" fill="blue" tooltip="enable"><title>(1.3843,0)</title></rect><rect x="414" y="166.667" width="6" height="33.3333" stroke="black" stroke-width="1" fill="blue" tooltip="enable"><title>(1.40466,1)</title></rect><rect x="420" y="200" width="6" height="0" stroke="black" stroke-width="1" fill="blue" tooltip="enable"><title>(1.42502,0)</title></rect><rect x="426" y="200" width="6" height="0" stroke="black" stroke-width="1" fill="blue" tooltip="enable"><title>(1.44538,0)</title></rect><rect x="432" y="200" width="6" height="0" stroke="black" stroke-width="1" fill="blue" tooltip="enable"><title>(1.46573,0)</title></rect><rect x="438" y="133.333" width="6" height="66.6667" stroke="black" stroke-width="1" fill="blue" tooltip="enable"><title>(1.48609,2)</title></rect><rect x="444" y="200" width="6" height="0" stroke="black" stroke-width="1" fill="blue" tooltip="enable"><title>(1.50645,0)</title></rect><rect x="450" y="200" width="6" height="0" stroke="black" stroke-width="1" fill="blue" tooltip="enable"><title>(1.52681,0)</title></rect><rect x="456" y="166.667" width="6" height="33.3333" stroke="black" stroke-width="1" fill="blue" tooltip="enable"><title>(1.54716,1)</title></rect><rect x="462" y="200" width="6" height="0" stroke="black" stroke-width="1" fill="blue" tooltip="enable"><title>(1.56752,0)</title></rect><rect x="468" y="200" width="6" height="0" stroke="black" stroke-width="1" fill="blue" tooltip="enable"><title>(1.58788,0)</title></rect><rect x="474" y="200" width="6" height="0" stroke="black" stroke-width="1" fill="blue" tooltip="enable"><title>(1.60824,0)</title></rect><rect x="480" y="166.667" width="6" height="33.3333" stroke="black" stroke-width="1" fill="blue" tooltip="enable"><title>(1.62859,1)</title></rect><rect x="486" y="200" width="6" height="0" stroke="black" stroke-width="1" fill="blue" tooltip="enable"><title>(1.64895,0)</title></rect><rect x="492" y="166.667" width="6" height="33.3333" stroke="black" stroke-width="1" fill="blue" tooltip="enable"><title>(1.66931,1)</title></rect><rect x="498" y="200" width="6" height="0" stroke="black" stroke-width="1" fill="blue" tooltip="enable"><title>(1.68967,0)</title></rect><rect x="504" y="200" width="6" height="0" stroke="black" stroke-width="1" fill="blue" tooltip="enable"><title>(1.71002,0)</title></rect><rect x="510" y="200" width="6" height="0" stroke="black" stroke-width="1" fill="blue" tooltip="enable"><title>(1.73038,0)</title></rect><rect x="516" y="200" width="6" height="0" stroke="black" stroke-width="1" fill="blue" tooltip="enable"><title>(1.75074,0)</title></rect><rect x="522" y="200" width="6" height="0" stroke="black" stroke-width="1" fill="blue" tooltip="enable"><title>(1.77109,0)</title></rect><rect x="528" y="200" width="6" height="0" stroke="black" stroke-width="1" fill="blue" tooltip="enable"><title>(1.79145,0)</title></rect><rect x="534" y="200" width="6" height="0" stroke="black" stroke-width="1" fill="blue" tooltip="enable"><title>(1.81181,0)</title></rect><rect x="540" y="166.667" width="6" height="33.3333" stroke="black" stroke-width="1" fill="blue" tooltip="enable"><title>(1.83217,1)</title></rect><rect x="546" y="200" width="6" height="0" stroke="black" stroke-width="1" fill="blue" tooltip="enable"><title>(1.85252,0)</title></rect><rect x="552" y="200" width="6" height="0" stroke="black" stroke-width="1" fill="blue" tooltip="enable"><title>(1.87288,0)</title></rect><rect x="558" y="200" width="6" height="0" stroke="black" stroke-width="1" fill="blue" tooltip="enable"><title>(1.89324,0)</title></rect><rect x="564" y="166.667" width="6" height="33.3333" stroke="black" stroke-width="1" fill="blue" tooltip="enable"><title>(1.9136,1)</title></rect><rect x="570" y="166.667" width="6" height="33.3333" stroke="black" stroke-width="1" fill="blue" tooltip="enable"><title>(1.93395,1)</title></rect><rect x="576" y="200" width="6" height="0" stroke="black" stroke-width="1" fill="blue" tooltip="enable"><title>(1.95431,0)</title></rect><rect x="582" y="200" width="6" height="0" stroke="black" stroke-width="1" fill="blue" tooltip="enable"><title>(1.97467,0)</title></rect><rect x="588" y="200" width="6" height="0" stroke="black" stroke-width="1" fill="blue" tooltip="enable"><title>(1.99503,0)</title></rect><rect x="594" y="200" width="6" height="0" stroke="black" stroke-width="1" fill="blue" tooltip="enable"><title>(2.01538,0)</title></rect><text x="30" y="240" font-size="20" fill="black">0</text>
<text x="600" y="240" font-size="20" fill="black">2.03574</text>
<polyline points="0,220,600,220" stroke="black" stroke-width="1" fill="none"/>
<text x="720" y="20" font-size="20" fill="black">6</text>
<text x="720" y="200" font-size="20" fill="black">0</text>
<polyline points="660,0,660,200" stroke="black" stroke-width="1" fill="none"/>
</svg>